<mxfile host="Electron" modified="2023-10-06T17:18:14.400Z" agent="Mozilla/5.0 (Windows NT 10.0; Win64; x64) AppleWebKit/537.36 (KHTML, like Gecko) draw.io/22.0.2 Chrome/114.0.5735.289 Electron/25.8.4 Safari/537.36" etag="NfRjeR3QecnFTlrDJpvZ" version="22.0.2" type="device" pages="4">
  <diagram name="static order" id="0BRpeIl0QqPu44WbI_3K">
    <mxGraphModel dx="674" dy="542" grid="1" gridSize="10" guides="1" tooltips="1" connect="1" arrows="1" fold="1" page="1" pageScale="1" pageWidth="850" pageHeight="1100" math="0" shadow="0">
      <root>
        <mxCell id="0" />
        <mxCell id="1" parent="0" />
        <mxCell id="qWz8WnTk3tz6-7qbsW68-1" value="order" style="swimlane;whiteSpace=wrap;html=1;sketch=1;curveFitting=1;jiggle=2;" parent="1" vertex="1">
          <mxGeometry x="190" y="130" width="200" height="170" as="geometry" />
        </mxCell>
        <mxCell id="qWz8WnTk3tz6-7qbsW68-2" value="item 1" style="rounded=0;whiteSpace=wrap;html=1;sketch=1;curveFitting=1;jiggle=2;" parent="qWz8WnTk3tz6-7qbsW68-1" vertex="1">
          <mxGeometry x="20" y="40" width="160" height="30" as="geometry" />
        </mxCell>
        <mxCell id="qWz8WnTk3tz6-7qbsW68-4" value="item 2" style="rounded=0;whiteSpace=wrap;html=1;sketch=1;curveFitting=1;jiggle=2;" parent="qWz8WnTk3tz6-7qbsW68-1" vertex="1">
          <mxGeometry x="20" y="80" width="160" height="30" as="geometry" />
        </mxCell>
        <mxCell id="qWz8WnTk3tz6-7qbsW68-3" value="item 3" style="rounded=0;whiteSpace=wrap;html=1;sketch=1;curveFitting=1;jiggle=2;" parent="qWz8WnTk3tz6-7qbsW68-1" vertex="1">
          <mxGeometry x="20" y="120" width="160" height="30" as="geometry" />
        </mxCell>
      </root>
    </mxGraphModel>
  </diagram>
  <diagram id="wxTqna8Xrf4aqKVLn-ky" name="order events">
    <mxGraphModel dx="766" dy="432" grid="1" gridSize="10" guides="1" tooltips="1" connect="1" arrows="1" fold="1" page="1" pageScale="1" pageWidth="850" pageHeight="1100" math="0" shadow="0">
      <root>
        <mxCell id="0" />
        <mxCell id="1" parent="0" />
        <mxCell id="_GmjEPudenbUt0FcGVty-3" value="" style="edgeStyle=orthogonalEdgeStyle;rounded=0;orthogonalLoop=1;jettySize=auto;html=1;" edge="1" parent="1" source="_GmjEPudenbUt0FcGVty-1" target="_GmjEPudenbUt0FcGVty-2">
          <mxGeometry relative="1" as="geometry" />
        </mxCell>
        <mxCell id="_GmjEPudenbUt0FcGVty-1" value="order created" style="rounded=1;whiteSpace=wrap;html=1;sketch=1;curveFitting=1;jiggle=2;" vertex="1" parent="1">
          <mxGeometry x="170" y="90" width="120" height="30" as="geometry" />
        </mxCell>
        <mxCell id="_GmjEPudenbUt0FcGVty-5" value="" style="edgeStyle=orthogonalEdgeStyle;rounded=0;orthogonalLoop=1;jettySize=auto;html=1;" edge="1" parent="1" source="_GmjEPudenbUt0FcGVty-2" target="_GmjEPudenbUt0FcGVty-4">
          <mxGeometry relative="1" as="geometry" />
        </mxCell>
        <mxCell id="_GmjEPudenbUt0FcGVty-2" value="item (a) added" style="rounded=1;whiteSpace=wrap;html=1;sketch=1;curveFitting=1;jiggle=2;" vertex="1" parent="1">
          <mxGeometry x="170" y="140" width="120" height="30" as="geometry" />
        </mxCell>
        <mxCell id="_GmjEPudenbUt0FcGVty-7" value="" style="edgeStyle=orthogonalEdgeStyle;rounded=0;orthogonalLoop=1;jettySize=auto;html=1;" edge="1" parent="1" source="_GmjEPudenbUt0FcGVty-4" target="_GmjEPudenbUt0FcGVty-6">
          <mxGeometry relative="1" as="geometry" />
        </mxCell>
        <mxCell id="_GmjEPudenbUt0FcGVty-4" value="item (b) added" style="rounded=1;whiteSpace=wrap;html=1;sketch=1;curveFitting=1;jiggle=2;" vertex="1" parent="1">
          <mxGeometry x="170" y="190" width="120" height="30" as="geometry" />
        </mxCell>
        <mxCell id="_GmjEPudenbUt0FcGVty-9" value="" style="edgeStyle=orthogonalEdgeStyle;rounded=0;orthogonalLoop=1;jettySize=auto;html=1;" edge="1" parent="1" source="_GmjEPudenbUt0FcGVty-18" target="_GmjEPudenbUt0FcGVty-8">
          <mxGeometry relative="1" as="geometry" />
        </mxCell>
        <mxCell id="_GmjEPudenbUt0FcGVty-6" value="item (1) added" style="rounded=1;whiteSpace=wrap;html=1;sketch=1;curveFitting=1;jiggle=2;" vertex="1" parent="1">
          <mxGeometry x="170" y="240" width="120" height="30" as="geometry" />
        </mxCell>
        <mxCell id="_GmjEPudenbUt0FcGVty-11" value="" style="edgeStyle=orthogonalEdgeStyle;rounded=0;orthogonalLoop=1;jettySize=auto;html=1;" edge="1" parent="1" source="_GmjEPudenbUt0FcGVty-8" target="_GmjEPudenbUt0FcGVty-10">
          <mxGeometry relative="1" as="geometry" />
        </mxCell>
        <mxCell id="_GmjEPudenbUt0FcGVty-8" value="item (b) removed" style="rounded=1;whiteSpace=wrap;html=1;sketch=1;curveFitting=1;jiggle=2;" vertex="1" parent="1">
          <mxGeometry x="170" y="340" width="120" height="30" as="geometry" />
        </mxCell>
        <mxCell id="_GmjEPudenbUt0FcGVty-13" value="" style="edgeStyle=orthogonalEdgeStyle;rounded=0;orthogonalLoop=1;jettySize=auto;html=1;" edge="1" parent="1" source="_GmjEPudenbUt0FcGVty-10" target="_GmjEPudenbUt0FcGVty-12">
          <mxGeometry relative="1" as="geometry" />
        </mxCell>
        <mxCell id="_GmjEPudenbUt0FcGVty-10" value="item (a) removed" style="rounded=1;whiteSpace=wrap;html=1;sketch=1;curveFitting=1;jiggle=2;" vertex="1" parent="1">
          <mxGeometry x="170" y="390" width="120" height="30" as="geometry" />
        </mxCell>
        <mxCell id="_GmjEPudenbUt0FcGVty-15" value="" style="edgeStyle=orthogonalEdgeStyle;rounded=0;orthogonalLoop=1;jettySize=auto;html=1;" edge="1" parent="1" source="_GmjEPudenbUt0FcGVty-12" target="_GmjEPudenbUt0FcGVty-14">
          <mxGeometry relative="1" as="geometry" />
        </mxCell>
        <mxCell id="_GmjEPudenbUt0FcGVty-12" value="item (2) added" style="rounded=1;whiteSpace=wrap;html=1;sketch=1;curveFitting=1;jiggle=2;" vertex="1" parent="1">
          <mxGeometry x="170" y="440" width="120" height="30" as="geometry" />
        </mxCell>
        <mxCell id="_GmjEPudenbUt0FcGVty-17" value="" style="edgeStyle=orthogonalEdgeStyle;rounded=0;orthogonalLoop=1;jettySize=auto;html=1;" edge="1" parent="1" source="_GmjEPudenbUt0FcGVty-14" target="_GmjEPudenbUt0FcGVty-16">
          <mxGeometry relative="1" as="geometry" />
        </mxCell>
        <mxCell id="_GmjEPudenbUt0FcGVty-14" value="item (3) added" style="rounded=1;whiteSpace=wrap;html=1;sketch=1;curveFitting=1;jiggle=2;" vertex="1" parent="1">
          <mxGeometry x="170" y="490" width="120" height="30" as="geometry" />
        </mxCell>
        <mxCell id="_GmjEPudenbUt0FcGVty-21" value="" style="edgeStyle=orthogonalEdgeStyle;rounded=0;orthogonalLoop=1;jettySize=auto;html=1;" edge="1" parent="1" source="_GmjEPudenbUt0FcGVty-16" target="_GmjEPudenbUt0FcGVty-20">
          <mxGeometry relative="1" as="geometry" />
        </mxCell>
        <mxCell id="_GmjEPudenbUt0FcGVty-16" value="begin checkout" style="rounded=1;whiteSpace=wrap;html=1;sketch=1;curveFitting=1;jiggle=2;" vertex="1" parent="1">
          <mxGeometry x="170" y="540" width="120" height="30" as="geometry" />
        </mxCell>
        <mxCell id="_GmjEPudenbUt0FcGVty-19" value="" style="edgeStyle=orthogonalEdgeStyle;rounded=0;orthogonalLoop=1;jettySize=auto;html=1;" edge="1" parent="1" source="_GmjEPudenbUt0FcGVty-6" target="_GmjEPudenbUt0FcGVty-18">
          <mxGeometry relative="1" as="geometry">
            <mxPoint x="230" y="270" as="sourcePoint" />
            <mxPoint x="230" y="330" as="targetPoint" />
          </mxGeometry>
        </mxCell>
        <mxCell id="_GmjEPudenbUt0FcGVty-18" value="begin checkout" style="rounded=1;whiteSpace=wrap;html=1;sketch=1;curveFitting=1;jiggle=2;" vertex="1" parent="1">
          <mxGeometry x="170" y="290" width="120" height="30" as="geometry" />
        </mxCell>
        <mxCell id="_GmjEPudenbUt0FcGVty-20" value="complete checkout" style="rounded=1;whiteSpace=wrap;html=1;sketch=1;curveFitting=1;jiggle=2;" vertex="1" parent="1">
          <mxGeometry x="170" y="590" width="120" height="30" as="geometry" />
        </mxCell>
      </root>
    </mxGraphModel>
  </diagram>
  <diagram id="F0kPYbYvP1muPOZS1zpS" name="state-event-continuum">
    <mxGraphModel dx="465" dy="374" grid="1" gridSize="10" guides="1" tooltips="1" connect="1" arrows="1" fold="1" page="1" pageScale="1" pageWidth="850" pageHeight="1100" math="0" shadow="0">
      <root>
        <mxCell id="0" />
        <mxCell id="1" parent="0" />
        <mxCell id="VXyEVrZE8ZHttgDs2wDL-1" value="" style="shape=flexArrow;endArrow=classic;startArrow=classic;html=1;rounded=0;startWidth=37.241379310344826;startSize=11.53793103448276;width=23.448275862068968;endWidth=37.241379310344826;endSize=10.275862068965518;sketch=1;curveFitting=1;jiggle=2;" edge="1" parent="1">
          <mxGeometry width="100" height="100" relative="1" as="geometry">
            <mxPoint x="175" y="270" as="sourcePoint" />
            <mxPoint x="370" y="270" as="targetPoint" />
          </mxGeometry>
        </mxCell>
        <mxCell id="VXyEVrZE8ZHttgDs2wDL-3" value="" style="shape=cylinder3;whiteSpace=wrap;html=1;boundedLbl=1;backgroundOutline=1;size=15;sketch=1;curveFitting=1;jiggle=2;" vertex="1" parent="1">
          <mxGeometry x="380" y="250" width="60" height="50" as="geometry" />
        </mxCell>
        <mxCell id="VXyEVrZE8ZHttgDs2wDL-4" value="" style="shape=cylinder3;whiteSpace=wrap;html=1;boundedLbl=1;backgroundOutline=1;size=15;sketch=1;curveFitting=1;jiggle=2;" vertex="1" parent="1">
          <mxGeometry x="110" y="250" width="60" height="50" as="geometry" />
        </mxCell>
        <mxCell id="VXyEVrZE8ZHttgDs2wDL-5" value="Events only" style="text;html=1;strokeColor=none;fillColor=none;align=center;verticalAlign=middle;whiteSpace=wrap;rounded=0;sketch=1;curveFitting=1;jiggle=2;" vertex="1" parent="1">
          <mxGeometry x="110" y="310" width="60" height="30" as="geometry" />
        </mxCell>
        <mxCell id="VXyEVrZE8ZHttgDs2wDL-6" value="State only" style="text;html=1;strokeColor=none;fillColor=none;align=center;verticalAlign=middle;whiteSpace=wrap;rounded=0;sketch=1;curveFitting=1;jiggle=2;" vertex="1" parent="1">
          <mxGeometry x="385" y="310" width="50" height="30" as="geometry" />
        </mxCell>
      </root>
    </mxGraphModel>
  </diagram>
  <diagram id="Z_AQjjxbfvHhKPMIQhA3" name="state vs event quad">
    <mxGraphModel dx="299" dy="265" grid="1" gridSize="10" guides="1" tooltips="1" connect="1" arrows="1" fold="1" page="1" pageScale="1" pageWidth="850" pageHeight="1100" math="0" shadow="0">
      <root>
        <mxCell id="0" />
        <mxCell id="1" parent="0" />
        <mxCell id="yDZsvKNzFSuoO5Knuu3z-4" value="" style="shape=flexArrow;endArrow=classic;html=1;rounded=0;startArrow=none;startFill=0;shadow=0;sketch=1;curveFitting=1;jiggle=2;" edge="1" parent="1">
          <mxGeometry width="50" height="50" relative="1" as="geometry">
            <mxPoint x="380" y="360" as="sourcePoint" />
            <mxPoint x="380" y="280" as="targetPoint" />
          </mxGeometry>
        </mxCell>
        <mxCell id="yDZsvKNzFSuoO5Knuu3z-5" value="" style="shape=flexArrow;endArrow=classic;html=1;rounded=0;sketch=1;curveFitting=1;jiggle=2;" edge="1" parent="1">
          <mxGeometry width="50" height="50" relative="1" as="geometry">
            <mxPoint x="390" y="370" as="sourcePoint" />
            <mxPoint x="470" y="370" as="targetPoint" />
          </mxGeometry>
        </mxCell>
        <mxCell id="yDZsvKNzFSuoO5Knuu3z-6" value="" style="shape=flexArrow;endArrow=classic;html=1;rounded=0;sketch=1;curveFitting=1;jiggle=2;" edge="1" parent="1">
          <mxGeometry width="50" height="50" relative="1" as="geometry">
            <mxPoint x="380" y="380" as="sourcePoint" />
            <mxPoint x="380" y="460" as="targetPoint" />
          </mxGeometry>
        </mxCell>
        <mxCell id="yDZsvKNzFSuoO5Knuu3z-7" value="" style="shape=flexArrow;endArrow=classic;html=1;rounded=0;sketch=1;curveFitting=1;jiggle=2;" edge="1" parent="1">
          <mxGeometry width="50" height="50" relative="1" as="geometry">
            <mxPoint x="370" y="370" as="sourcePoint" />
            <mxPoint x="290" y="370" as="targetPoint" />
          </mxGeometry>
        </mxCell>
        <mxCell id="yDZsvKNzFSuoO5Knuu3z-9" value="High Event Focus" style="text;html=1;strokeColor=none;fillColor=none;align=center;verticalAlign=middle;whiteSpace=wrap;rounded=0;" vertex="1" parent="1">
          <mxGeometry x="340" y="240" width="80" height="30" as="geometry" />
        </mxCell>
        <mxCell id="yDZsvKNzFSuoO5Knuu3z-10" value="High State Focus" style="text;html=1;strokeColor=none;fillColor=none;align=center;verticalAlign=middle;whiteSpace=wrap;rounded=0;" vertex="1" parent="1">
          <mxGeometry x="470" y="350" width="60" height="30" as="geometry" />
        </mxCell>
        <mxCell id="yDZsvKNzFSuoO5Knuu3z-11" value="Low Event Focus" style="text;html=1;strokeColor=none;fillColor=none;align=center;verticalAlign=middle;whiteSpace=wrap;rounded=0;" vertex="1" parent="1">
          <mxGeometry x="342.5" y="460" width="75" height="40" as="geometry" />
        </mxCell>
        <mxCell id="yDZsvKNzFSuoO5Knuu3z-12" value="Low State Focus" style="text;html=1;strokeColor=none;fillColor=none;align=center;verticalAlign=middle;whiteSpace=wrap;rounded=0;" vertex="1" parent="1">
          <mxGeometry x="229" y="350" width="60" height="40" as="geometry" />
        </mxCell>
        <mxCell id="yDZsvKNzFSuoO5Knuu3z-14" value="" style="shape=callout;whiteSpace=wrap;html=1;perimeter=calloutPerimeter;rotation=-180;size=30;position=0.18;position2=0.06;sketch=1;curveFitting=1;jiggle=2;fillColor=#fff2cc;strokeColor=#d6b656;" vertex="1" parent="1">
          <mxGeometry x="262.5" y="400" width="77.5" height="70" as="geometry" />
        </mxCell>
        <mxCell id="yDZsvKNzFSuoO5Knuu3z-15" value="&lt;font style=&quot;font-size: 8px;&quot;&gt;No persistence at all -- unlikely&lt;/font&gt;" style="text;html=1;strokeColor=none;fillColor=none;align=center;verticalAlign=middle;whiteSpace=wrap;rounded=0;" vertex="1" parent="1">
          <mxGeometry x="268" y="434" width="70" height="30" as="geometry" />
        </mxCell>
        <mxCell id="yDZsvKNzFSuoO5Knuu3z-16" value="" style="html=1;verticalLabelPosition=bottom;align=center;labelBackgroundColor=#ffffff;verticalAlign=top;strokeWidth=2;strokeColor=#0080F0;shadow=0;dashed=0;shape=mxgraph.ios7.icons.settings;" vertex="1" parent="1">
          <mxGeometry x="309" y="280" width="29" height="30" as="geometry" />
        </mxCell>
        <mxCell id="yDZsvKNzFSuoO5Knuu3z-18" value="" style="html=1;verticalLabelPosition=bottom;align=center;labelBackgroundColor=#ffffff;verticalAlign=top;strokeWidth=2;strokeColor=#0080F0;shadow=0;dashed=0;shape=mxgraph.ios7.icons.settings;" vertex="1" parent="1">
          <mxGeometry x="425" y="390" width="29" height="30" as="geometry" />
        </mxCell>
        <mxCell id="yDZsvKNzFSuoO5Knuu3z-19" value="" style="html=1;verticalLabelPosition=bottom;align=center;labelBackgroundColor=#ffffff;verticalAlign=top;strokeWidth=2;strokeColor=#0080F0;shadow=0;dashed=0;shape=mxgraph.ios7.icons.settings;" vertex="1" parent="1">
          <mxGeometry x="396" y="340" width="29" height="30" as="geometry" />
        </mxCell>
        <mxCell id="yDZsvKNzFSuoO5Knuu3z-20" value="" style="html=1;verticalLabelPosition=bottom;align=center;labelBackgroundColor=#ffffff;verticalAlign=top;strokeWidth=2;strokeColor=#0080F0;shadow=0;dashed=0;shape=mxgraph.ios7.icons.settings;" vertex="1" parent="1">
          <mxGeometry x="388.5" y="300" width="29" height="30" as="geometry" />
        </mxCell>
        <mxCell id="yDZsvKNzFSuoO5Knuu3z-21" value="" style="html=1;verticalLabelPosition=bottom;align=center;labelBackgroundColor=#ffffff;verticalAlign=top;strokeWidth=2;strokeColor=#0080F0;shadow=0;dashed=0;shape=mxgraph.ios7.icons.settings;" vertex="1" parent="1">
          <mxGeometry x="342.5" y="320" width="29" height="30" as="geometry" />
        </mxCell>
      </root>
    </mxGraphModel>
  </diagram>
</mxfile>
